<svg xmlns="http://www.w3.org/2000/svg" xmlns:xlink="http://www.w3.org/1999/xlink" width="500" zoomAndPan="magnify" viewBox="0 0 375 374.999991" height="500" preserveAspectRatio="xMidYMid meet" version="1.0"><defs><clipPath id="583f1deb0a"><path d="M 181.152344 161 L 287.171875 161 L 287.171875 264.550781 L 181.152344 264.550781 Z M 181.152344 161 " clip-rule="nonzero"/></clipPath><clipPath id="3239ffe4b0"><path d="M 167 73.804688 L 210 73.804688 L 210 120 L 167 120 Z M 167 73.804688 " clip-rule="nonzero"/></clipPath><clipPath id="41857654ef"><path d="M 161 8 L 306.023438 8 L 306.023438 132.828125 L 161 132.828125 Z M 161 8 " clip-rule="nonzero"/></clipPath></defs><path fill="#928072" d="M 182.769531 252.414062 C 193.03125 253.191406 203.015625 248.945312 211.902344 243.753906 C 220.304688 238.839844 228.46875 232.640625 232.699219 223.871094 C 240.046875 208.644531 233.0625 188.992188 241.648438 174.835938 C 243.730469 171.402344 246.09375 168.023438 249.34375 165.664062 C 260.441406 157.605469 274.078125 163.363281 280.28125 174.113281 C 284.617188 181.625 290.582031 203.921875 280.914062 209.902344 C 269.859375 216.738281 269.441406 201.417969 269.582031 195.46875 C 269.667969 191.902344 268.582031 187.953125 265.539062 186.082031 C 263.347656 184.734375 260.367188 184.792969 258.226562 186.226562 C 253.082031 189.671875 253.707031 199.097656 253.753906 204.398438 C 253.953125 227.480469 244.824219 249.585938 222.933594 259.398438 C 210.128906 265.140625 194.800781 264.921875 182.167969 258.824219 L 182.769531 252.414062 " fill-opacity="1" fill-rule="nonzero"/><g clip-path="url(#583f1deb0a)"><path fill="#000000" d="M 182.769531 253.265625 C 196.945312 254.121094 211.316406 246.53125 222.097656 237.871094 C 227.1875 233.78125 231.625 228.765625 234.15625 222.683594 C 236.738281 216.472656 237.210938 209.667969 237.441406 203.023438 C 237.683594 196.054688 237.53125 188.910156 239.449219 182.140625 C 241.445312 175.097656 246.320312 167.601562 253.09375 164.425781 C 265.5625 158.582031 277.746094 168.394531 281.917969 179.816406 C 283.71875 184.742188 284.957031 190 285.21875 195.246094 C 285.449219 199.902344 285.046875 205.871094 280.917969 208.878906 C 279.203125 210.132812 276.449219 211.453125 274.335938 210.390625 C 272.515625 209.472656 271.746094 207.199219 271.269531 205.363281 C 270.195312 201.214844 270.851562 197.085938 270.289062 192.917969 C 269.617188 187.9375 265.890625 183.230469 260.359375 184.429688 C 255.472656 185.488281 253.695312 190.558594 253.144531 194.972656 C 252.421875 200.769531 253.105469 206.664062 252.578125 212.488281 C 252.019531 218.691406 250.695312 224.851562 248.476562 230.679688 C 243.210938 244.472656 232.398438 255.640625 218.25 260.304688 C 209.914062 263.054688 200.84375 263.4375 192.292969 261.472656 C 190.121094 260.972656 187.980469 260.320312 185.902344 259.519531 C 185.5 259.363281 182.785156 258.25 183.023438 258.765625 C 182.9375 258.574219 183.128906 258.226562 183.09375 258.015625 C 182.828125 256.335938 183.460938 254.121094 183.621094 252.414062 C 183.722656 251.320312 182.019531 251.328125 181.917969 252.414062 C 181.714844 254.550781 181.515625 256.6875 181.316406 258.824219 C 181.289062 259.09375 181.492188 259.441406 181.738281 259.558594 C 194.792969 265.695312 210.148438 266.050781 223.363281 260.136719 C 234.59375 255.109375 243.425781 246.039062 248.539062 234.890625 C 253.675781 223.695312 254.464844 212.09375 254.5625 199.980469 C 254.582031 197.222656 254.707031 194.386719 255.523438 191.734375 C 256.898438 187.28125 261.917969 183.597656 266.125 187.605469 C 269.898438 191.199219 268.445312 197.542969 268.996094 202.242188 C 269.363281 205.382812 270.066406 209.410156 272.808594 211.425781 C 275.871094 213.679688 280.238281 211.855469 282.757812 209.574219 C 289.648438 203.332031 286.980469 190.578125 284.710938 182.871094 C 281.792969 172.9375 275.492188 163.605469 264.667969 161.441406 C 251.695312 158.847656 241.367188 169.675781 237.929688 181.277344 C 233.375 196.644531 239.066406 214.078125 229.289062 227.976562 C 224.386719 234.941406 217.070312 239.90625 209.738281 244.007812 C 201.460938 248.644531 192.402344 252.144531 182.769531 251.558594 C 181.671875 251.496094 181.675781 253.199219 182.769531 253.265625 " fill-opacity="1" fill-rule="nonzero"/></g><path fill="#ffffff" d="M 114.894531 210.765625 C 109.492188 209.523438 103.941406 210.007812 100.203125 213.71875 C 97.328125 216.574219 95.492188 220.328125 94.25 224.1875 C 88.78125 241.1875 96.511719 260.753906 106.464844 274.558594 C 102.011719 275.285156 84.324219 286.636719 94.625 288.292969 C 104.667969 289.910156 116.179688 289.496094 126.3125 288.777344 C 130.371094 288.488281 134.691406 287.921875 137.78125 285.273438 C 139.421875 283.867188 140.574219 281.980469 141.539062 280.046875 C 145.820312 271.46875 146.859375 261.476562 145.4375 251.992188 C 143.566406 239.550781 137.542969 227.113281 128.664062 218.136719 C 125.523438 214.960938 120.28125 212.003906 114.894531 210.765625 " fill-opacity="1" fill-rule="nonzero"/><path fill="#000000" d="M 109.78125 208.449219 C 105.40625 208.449219 101.675781 209.851562 99.003906 212.507812 C 96.25 215.246094 94.164062 218.894531 92.628906 223.667969 C 89.992188 231.867188 90.09375 241.074219 92.9375 251.039062 C 95.597656 260.367188 100.058594 268.230469 103.75 273.652344 C 101.488281 274.601562 98.753906 276.214844 96.679688 277.660156 C 92.078125 280.867188 89.746094 283.679688 89.75 286.019531 C 89.75 287.222656 90.351562 289.328125 94.355469 289.972656 C 99.121094 290.742188 104.464844 291.113281 110.6875 291.113281 C 115.296875 291.113281 120.300781 290.910156 126.433594 290.476562 C 130.601562 290.179688 135.34375 289.609375 138.890625 286.566406 C 140.898438 284.84375 142.175781 282.585938 143.0625 280.808594 C 147.238281 272.441406 148.679688 262.117188 147.121094 251.738281 C 145.164062 238.726562 138.878906 226.042969 129.875 216.9375 C 126.339844 213.367188 120.746094 210.363281 115.273438 209.105469 C 113.378906 208.671875 111.53125 208.449219 109.78125 208.449219 Z M 109.78125 210.152344 C 111.457031 210.152344 113.183594 210.371094 114.894531 210.765625 C 120.28125 212.003906 125.523438 214.960938 128.664062 218.136719 C 137.542969 227.113281 143.566406 239.550781 145.4375 251.992188 C 146.859375 261.476562 145.820312 271.46875 141.539062 280.046875 C 140.574219 281.980469 139.421875 283.867188 137.78125 285.273438 C 134.691406 287.921875 130.371094 288.488281 126.3125 288.777344 C 121.324219 289.132812 116.003906 289.410156 110.6875 289.410156 C 105.203125 289.410156 99.726562 289.113281 94.625 288.292969 C 84.324219 286.636719 102.011719 275.285156 106.464844 274.558594 C 96.511719 260.753906 88.78125 241.1875 94.25 224.1875 C 95.492188 220.328125 97.328125 216.574219 100.203125 213.71875 C 102.757812 211.179688 106.160156 210.152344 109.78125 210.152344 " fill-opacity="1" fill-rule="nonzero"/><path fill="#ffffff" d="M 205.292969 210.765625 C 210.695312 209.523438 216.246094 210.007812 219.984375 213.71875 C 222.859375 216.574219 224.695312 220.328125 225.9375 224.1875 C 231.40625 241.1875 223.675781 260.753906 213.722656 274.558594 C 218.175781 275.285156 235.863281 286.636719 225.5625 288.292969 C 215.519531 289.910156 204.007812 289.496094 193.875 288.777344 C 189.816406 288.488281 185.492188 287.921875 182.40625 285.273438 C 180.765625 283.867188 179.613281 281.980469 178.648438 280.046875 C 174.367188 271.46875 173.324219 261.476562 174.75 251.992188 C 176.621094 239.550781 182.644531 227.113281 191.523438 218.136719 C 194.664062 214.960938 199.90625 212.003906 205.292969 210.765625 " fill-opacity="1" fill-rule="nonzero"/><path fill="#000000" d="M 210.40625 208.449219 C 208.65625 208.449219 206.808594 208.671875 204.910156 209.105469 C 199.441406 210.363281 193.847656 213.367188 190.3125 216.9375 C 181.308594 226.042969 175.023438 238.726562 173.066406 251.738281 C 171.507812 262.117188 172.949219 272.441406 177.125 280.808594 C 178.011719 282.585938 179.289062 284.84375 181.296875 286.566406 C 184.84375 289.609375 189.585938 290.179688 193.753906 290.476562 C 199.886719 290.910156 204.890625 291.113281 209.5 291.113281 C 215.722656 291.113281 221.066406 290.742188 225.832031 289.972656 C 227.550781 289.695312 230.433594 288.816406 230.4375 286.019531 C 230.441406 283.679688 228.109375 280.867188 223.507812 277.660156 C 221.433594 276.214844 218.699219 274.601562 216.4375 273.652344 C 220.128906 268.230469 224.589844 260.367188 227.25 251.039062 C 230.09375 241.074219 230.195312 231.867188 227.558594 223.667969 C 226.023438 218.894531 223.9375 215.246094 221.183594 212.507812 C 218.511719 209.851562 214.78125 208.449219 210.40625 208.449219 Z M 210.40625 210.152344 C 214.027344 210.152344 217.429688 211.179688 219.984375 213.71875 C 222.859375 216.574219 224.695312 220.328125 225.9375 224.1875 C 231.40625 241.1875 223.675781 260.753906 213.722656 274.558594 C 218.175781 275.285156 235.863281 286.636719 225.5625 288.292969 C 220.460938 289.113281 214.984375 289.410156 209.5 289.410156 C 204.183594 289.410156 198.863281 289.132812 193.875 288.777344 C 189.816406 288.488281 185.492188 287.921875 182.40625 285.273438 C 180.765625 283.867188 179.613281 281.980469 178.648438 280.046875 C 174.367188 271.46875 173.324219 261.476562 174.75 251.992188 C 176.621094 239.550781 182.644531 227.113281 191.523438 218.136719 C 194.664062 214.960938 199.90625 212.003906 205.292969 210.765625 C 207.003906 210.371094 208.726562 210.152344 210.40625 210.152344 " fill-opacity="1" fill-rule="nonzero"/><path fill="#ffffff" d="M 107.769531 143.242188 C 108.527344 143.121094 108.082031 160.308594 108.082031 161.636719 C 108.058594 180.0625 105.203125 198.144531 102.558594 216.113281 C 100.328125 231.269531 95.804688 249.136719 102.160156 264.011719 C 105.664062 272.210938 112.128906 278.113281 119.0625 281.738281 C 133.535156 289.304688 149.363281 292.3125 164.84375 291.835938 C 178.8125 291.40625 195.550781 289.21875 206.980469 278.945312 C 217.691406 269.324219 219.050781 251.96875 219.277344 236.703125 C 219.535156 219.34375 217.347656 202.007812 215.144531 184.820312 C 212.953125 167.699219 210.78125 150.578125 208.5625 133.464844 C 207.90625 128.375 208.066406 126.300781 203.960938 126.421875 C 202.253906 126.476562 200.472656 127.035156 198.785156 127.328125 C 186.140625 129.539062 173.492188 131.75 160.84375 133.964844 C 143.34375 137.023438 125.464844 141.894531 107.769531 143.242188 " fill-opacity="1" fill-rule="nonzero"/><path fill="#000000" d="M 204.296875 124.714844 C 204.171875 124.714844 204.042969 124.714844 203.910156 124.722656 C 202.605469 124.761719 201.339844 125.042969 200.113281 125.316406 C 199.546875 125.441406 199.011719 125.558594 198.492188 125.652344 L 160.550781 132.285156 C 154.710938 133.304688 148.734375 134.546875 142.957031 135.75 C 131.371094 138.152344 119.398438 140.640625 107.710938 141.539062 L 107.644531 141.539062 L 107.503906 141.5625 L 107.710938 143.3125 L 107.769531 144.945312 C 106.929688 144.941406 106.378906 144.332031 106.269531 143.917969 C 106.453125 144.617188 106.621094 147.988281 106.402344 160.085938 C 106.386719 160.882812 106.378906 161.433594 106.378906 161.632812 C 106.355469 178.769531 103.824219 195.894531 101.375 212.457031 L 100.871094 215.863281 C 100.539062 218.132812 100.160156 220.421875 99.757812 222.847656 C 97.527344 236.320312 95 251.589844 100.59375 264.679688 C 103.902344 272.425781 110.179688 279.019531 118.273438 283.25 C 131.394531 290.109375 146.003906 293.589844 161.699219 293.589844 C 162.757812 293.589844 163.832031 293.570312 164.898438 293.539062 C 177.515625 293.152344 195.726562 291.347656 208.121094 280.210938 C 219 270.4375 220.730469 253.535156 220.980469 236.726562 C 221.246094 219.011719 219.003906 201.519531 216.835938 184.601562 C 216.105469 178.898438 215.375 173.191406 214.648438 167.484375 C 213.214844 156.261719 211.734375 144.65625 210.253906 133.246094 C 210.195312 132.785156 210.140625 132.347656 210.089844 131.9375 C 209.601562 127.902344 209.214844 124.714844 204.296875 124.714844 M 107.777344 143.242188 L 107.769531 143.242188 L 107.777344 143.242188 M 204.296875 126.417969 C 208.058594 126.417969 207.921875 128.515625 208.5625 133.464844 C 210.78125 150.578125 212.953125 167.699219 215.144531 184.820312 C 217.347656 202.007812 219.535156 219.34375 219.277344 236.703125 C 219.050781 251.96875 217.691406 269.324219 206.980469 278.945312 C 195.550781 289.21875 178.8125 291.40625 164.84375 291.835938 C 163.796875 291.871094 162.75 291.886719 161.699219 291.886719 C 147.226562 291.886719 132.554688 288.792969 119.0625 281.738281 C 112.128906 278.113281 105.664062 272.210938 102.160156 264.011719 C 95.804688 249.136719 100.328125 231.269531 102.558594 216.113281 C 105.203125 198.144531 108.058594 180.0625 108.082031 161.636719 C 108.082031 160.3125 108.523438 143.246094 107.777344 143.242188 C 125.46875 141.890625 143.347656 137.023438 160.84375 133.964844 C 173.492188 131.75 186.140625 129.539062 198.785156 127.328125 C 200.472656 127.035156 202.253906 126.476562 203.960938 126.421875 C 204.078125 126.421875 204.191406 126.417969 204.296875 126.417969 " fill-opacity="1" fill-rule="nonzero"/><path fill="#928072" d="M 133.539062 97.386719 C 122.78125 93.6875 111.277344 92.183594 99.929688 92.992188 C 98.5 93.097656 96.996094 93.261719 95.839844 94.113281 C 94.332031 95.226562 93.789062 97.296875 94.019531 99.160156 C 94.25 101.019531 95.128906 102.730469 96.003906 104.386719 C 101.011719 113.898438 106.308594 123.253906 111.890625 132.4375 L 133.539062 97.386719 " fill-opacity="1" fill-rule="nonzero"/><path fill="#000000" d="M 105.921875 91.078125 C 103.890625 91.078125 101.832031 91.152344 99.808594 91.292969 C 98.195312 91.410156 96.34375 91.625 94.832031 92.742188 C 92.949219 94.125 91.992188 96.667969 92.328125 99.371094 C 92.605469 101.589844 93.65625 103.582031 94.496094 105.183594 C 99.496094 114.679688 104.859375 124.148438 110.433594 133.320312 L 111.878906 135.695312 L 113.339844 133.332031 L 134.988281 98.28125 L 136.105469 96.46875 L 134.09375 95.777344 C 125.027344 92.660156 115.546875 91.078125 105.921875 91.078125 M 105.921875 92.78125 C 115.296875 92.78125 124.671875 94.339844 133.539062 97.386719 L 111.890625 132.4375 C 106.308594 123.253906 101.011719 113.898438 96.003906 104.386719 C 95.128906 102.730469 94.25 101.019531 94.019531 99.160156 C 93.789062 97.296875 94.332031 95.226562 95.839844 94.113281 C 96.996094 93.261719 98.5 93.097656 99.929688 92.992188 C 101.925781 92.851562 103.921875 92.78125 105.921875 92.78125 " fill-opacity="1" fill-rule="nonzero"/><path fill="#db907b" d="M 127.582031 107.035156 C 120.691406 100.027344 110.613281 96.851562 100.8125 95.457031 C 98.921875 95.1875 96.976562 94.972656 95.113281 95.402344 C 94.996094 95.363281 94.882812 95.332031 94.769531 95.296875 C 94.082031 96.414062 93.855469 97.839844 94.019531 99.160156 C 94.25 101.019531 95.128906 102.730469 96.003906 104.386719 C 101.011719 113.898438 106.308594 123.253906 111.890625 132.4375 L 127.582031 107.035156 " fill-opacity="1" fill-rule="nonzero"/><path fill="#928072" d="M 170.292969 98.398438 C 177.425781 89.542969 186.363281 82.140625 196.398438 76.785156 C 197.664062 76.109375 199.027344 75.453125 200.457031 75.558594 C 202.328125 75.695312 203.890625 77.160156 204.683594 78.859375 C 205.480469 80.554688 205.644531 82.472656 205.789062 84.339844 C 206.617188 95.054688 207.113281 105.796875 207.277344 116.542969 L 170.292969 98.398438 " fill-opacity="1" fill-rule="nonzero"/><g clip-path="url(#3239ffe4b0)"><path fill="#000000" d="M 200.152344 73.84375 C 198.441406 73.84375 196.90625 74.585938 195.597656 75.285156 C 185.414062 80.71875 176.203125 88.339844 168.964844 97.332031 L 167.628906 98.992188 L 169.542969 99.929688 L 206.527344 118.070312 L 209.023438 119.292969 L 208.980469 116.515625 C 208.816406 105.78125 208.3125 94.914062 207.488281 84.210938 C 207.347656 82.40625 207.175781 80.164062 206.226562 78.136719 C 205.074219 75.667969 202.910156 74.027344 200.582031 73.855469 C 200.4375 73.847656 200.296875 73.84375 200.152344 73.84375 M 200.152344 75.546875 C 200.253906 75.546875 200.355469 75.550781 200.457031 75.558594 C 202.328125 75.695312 203.890625 77.160156 204.683594 78.859375 C 205.480469 80.554688 205.644531 82.472656 205.789062 84.339844 C 206.617188 95.054688 207.113281 105.796875 207.277344 116.542969 L 170.292969 98.398438 C 177.425781 89.542969 186.363281 82.140625 196.398438 76.785156 C 197.574219 76.160156 198.835938 75.546875 200.152344 75.546875 " fill-opacity="1" fill-rule="nonzero"/></g><path fill="#db907b" d="M 180.472656 103.390625 L 207.277344 116.542969 C 207.113281 105.796875 206.617188 95.054688 205.789062 84.339844 C 205.644531 82.472656 205.480469 80.554688 204.683594 78.859375 C 204.160156 77.730469 203.292969 76.710938 202.226562 76.109375 C 202.070312 76.15625 201.917969 76.207031 201.761719 76.257812 C 199.957031 76.886719 198.421875 78.105469 196.960938 79.339844 C 189.410156 85.738281 182.570312 93.792969 180.472656 103.390625 " fill-opacity="1" fill-rule="nonzero"/><path fill="#ffffff" d="M 186.957031 178.308594 C 178.117188 180.972656 167 181.261719 157.800781 180.886719 C 134.015625 179.921875 108.929688 169.886719 107.214844 142.957031 C 106.75 135.644531 106.742188 128.210938 108.519531 121.097656 C 110.496094 113.1875 114.605469 105.683594 121.835938 101.511719 C 137.566406 92.429688 157.601562 89.929688 175.238281 93.902344 C 184.132812 95.90625 192.730469 99.738281 199.59375 105.820312 C 208.152344 113.40625 210.695312 123.699219 211.433594 134.789062 C 211.527344 136.191406 211.589844 137.59375 211.644531 139 C 211.984375 148.054688 210.46875 160.925781 204.085938 167.859375 C 199.507812 172.832031 193.398438 176.371094 186.957031 178.308594 " fill-opacity="1" fill-rule="nonzero"/><path fill="#000000" d="M 158.566406 90.375 L 158.566406 92.078125 L 158.566406 90.375 C 145.125 90.375 131.78125 93.804688 120.984375 100.035156 C 112.332031 105.027344 108.53125 114.019531 106.867188 120.6875 C 104.90625 128.53125 105.113281 136.769531 105.515625 143.066406 C 106.339844 156.027344 112.332031 166.132812 123.320312 173.097656 C 134.597656 180.246094 148.257812 182.207031 157.730469 182.589844 C 159.910156 182.679688 162.050781 182.722656 164.09375 182.722656 C 173.460938 182.722656 181.316406 181.789062 187.449219 179.941406 C 194.539062 177.804688 200.726562 174.027344 205.339844 169.015625 C 208.441406 165.640625 210.703125 160.785156 212.050781 154.585938 C 213.085938 149.820312 213.546875 144.261719 213.34375 138.9375 C 213.28125 137.21875 213.214844 135.90625 213.132812 134.675781 C 212.699219 128.136719 211.714844 122.964844 210.046875 118.40625 C 208.003906 112.828125 204.953125 108.296875 200.722656 104.546875 C 194.140625 98.714844 185.457031 94.457031 175.613281 92.238281 C 170.113281 91.003906 164.378906 90.375 158.566406 90.375 M 158.566406 92.078125 C 164.21875 92.078125 169.839844 92.6875 175.238281 93.902344 C 184.132812 95.90625 192.730469 99.738281 199.59375 105.820312 C 208.152344 113.40625 210.695312 123.699219 211.433594 134.789062 C 211.527344 136.191406 211.589844 137.59375 211.644531 139 C 211.984375 148.054688 210.46875 160.925781 204.085938 167.859375 C 199.507812 172.832031 193.398438 176.367188 186.957031 178.308594 C 180.058594 180.386719 171.769531 181.019531 164.09375 181.019531 C 161.929688 181.019531 159.820312 180.96875 157.800781 180.886719 C 134.015625 179.921875 108.929688 169.886719 107.214844 142.957031 C 106.75 135.644531 106.742188 128.210938 108.519531 121.097656 C 110.496094 113.1875 114.605469 105.683594 121.835938 101.511719 C 132.753906 95.210938 145.742188 92.078125 158.566406 92.078125 " fill-opacity="1" fill-rule="nonzero"/><path fill="#928072" d="M 108.519531 121.097656 C 106.742188 128.210938 106.75 135.644531 107.214844 142.957031 C 107.574219 148.5625 108.941406 153.429688 111.101562 157.640625 C 111.667969 153.164062 111.664062 148.734375 114.238281 144.453125 C 117.871094 138.402344 122.378906 133.875 128 129.609375 C 133.445312 125.480469 138.613281 121.949219 142.757812 117.054688 C 144.402344 115.109375 145.890625 112.945312 147.164062 110.445312 C 149.976562 104.941406 151.667969 98.539062 150.992188 92.445312 C 140.710938 93.433594 130.605469 96.449219 121.835938 101.511719 C 114.605469 105.683594 110.496094 113.1875 108.519531 121.097656 " fill-opacity="1" fill-rule="nonzero"/><path fill="#928072" d="M 211.644531 139 C 211.589844 137.59375 211.527344 136.191406 211.433594 134.789062 C 210.695312 123.699219 208.152344 113.40625 199.59375 105.820312 C 192.730469 99.738281 184.132812 95.90625 175.238281 93.902344 C 171.132812 92.976562 166.898438 92.40625 162.617188 92.1875 C 162.589844 92.472656 162.5625 92.761719 162.542969 93.058594 C 161.976562 100.605469 162.878906 108.355469 165.960938 115.265625 C 169.039062 122.175781 174.417969 128.191406 181.316406 131.292969 C 185.855469 133.335938 190.890625 134.089844 195.429688 136.132812 C 201.988281 139.089844 207.335938 144.199219 210.347656 150.757812 C 210.523438 151.144531 210.6875 151.523438 210.832031 151.894531 C 211.59375 147.40625 211.789062 142.855469 211.644531 139 " fill-opacity="1" fill-rule="nonzero"/><path fill="#bab17d" d="M 146.824219 134.773438 C 142.589844 139.054688 135.636719 139.40625 131.117188 135.441406 C 128.398438 133.058594 127.039062 129.222656 127.644531 125.65625 C 128.121094 122.835938 129.761719 120.273438 131.972656 118.457031 C 135.316406 115.710938 140.535156 115.335938 144.25 117.550781 C 147.371094 119.414062 148.6875 122.460938 149.335938 125.871094 C 149.9375 129.019531 149.078125 132.492188 146.824219 134.773438 " fill-opacity="1" fill-rule="nonzero"/><path fill="#000000" d="M 146.222656 134.171875 C 142.597656 137.585938 137.121094 138.472656 132.835938 135.679688 C 127.714844 132.34375 127.089844 125.394531 130.84375 120.816406 C 134.324219 116.5625 141.019531 115.484375 145.25 119.359375 C 149.261719 123.03125 149.839844 130.117188 146.222656 134.171875 C 145.492188 134.984375 146.695312 136.195312 147.425781 135.375 C 151.601562 130.691406 151.175781 122.878906 146.738281 118.417969 C 142.054688 113.707031 134.070312 114.535156 129.832031 119.355469 C 125.488281 124.300781 125.617188 131.988281 130.828125 136.300781 C 135.789062 140.40625 142.875 139.664062 147.425781 135.375 C 148.226562 134.621094 147.019531 133.417969 146.222656 134.171875 " fill-opacity="1" fill-rule="nonzero"/><path fill="#bab17d" d="M 185.675781 133.640625 C 181.445312 137.921875 174.488281 138.277344 169.96875 134.3125 C 167.25 131.925781 165.890625 128.089844 166.496094 124.527344 C 166.972656 121.707031 168.613281 119.144531 170.824219 117.328125 C 174.167969 114.582031 179.386719 114.203125 183.101562 116.421875 C 186.222656 118.28125 187.539062 121.328125 188.1875 124.742188 C 188.789062 127.890625 187.929688 131.359375 185.675781 133.640625 " fill-opacity="1" fill-rule="nonzero"/><path fill="#000000" d="M 185.074219 133.039062 C 181.449219 136.453125 175.972656 137.34375 171.6875 134.550781 C 166.566406 131.214844 165.941406 124.265625 169.695312 119.683594 C 173.175781 115.433594 179.871094 114.351562 184.101562 118.226562 C 188.113281 121.902344 188.691406 128.984375 185.074219 133.039062 C 184.34375 133.855469 185.546875 135.0625 186.277344 134.242188 C 190.453125 129.5625 190.027344 121.75 185.59375 117.285156 C 180.910156 112.574219 172.921875 113.402344 168.683594 118.222656 C 164.335938 123.171875 164.46875 130.855469 169.679688 135.167969 C 174.640625 139.273438 181.726562 138.535156 186.277344 134.242188 C 187.078125 133.488281 185.871094 132.285156 185.074219 133.039062 " fill-opacity="1" fill-rule="nonzero"/><path fill="#db907b" d="M 166.832031 144.851562 C 167.117188 145.035156 167.425781 145.273438 167.441406 145.605469 C 167.46875 146.210938 166.644531 146.390625 166.042969 146.457031 C 164.375 146.644531 162.859375 147.679688 161.957031 149.074219 C 160.90625 150.691406 162.039062 153.035156 160.269531 154.320312 C 159.523438 154.859375 158.53125 154.890625 157.609375 154.898438 C 157.03125 154.90625 156.402344 154.898438 155.933594 154.554688 C 154.929688 153.8125 155.542969 150.777344 155.070312 149.621094 C 153.765625 146.433594 151.066406 147.234375 148.515625 145.800781 C 148.382812 145.726562 148.238281 145.628906 148.222656 145.476562 C 148.207031 145.332031 148.324219 145.210938 148.429688 145.109375 C 150.78125 142.960938 154.441406 142.367188 157.550781 142.269531 C 160.78125 142.164062 164.109375 143.128906 166.832031 144.851562 " fill-opacity="1" fill-rule="nonzero"/><path fill="#000000" d="M 166.230469 145.457031 C 165.890625 145.1875 163.667969 146.332031 163.28125 146.578125 C 162.496094 147.082031 161.6875 147.828125 161.21875 148.644531 C 160.746094 149.472656 160.792969 150.226562 160.578125 151.109375 C 160.199219 152.636719 158.648438 154.84375 156.953125 153.792969 C 156.058594 153.238281 156.207031 153.011719 156.144531 151.910156 C 156.050781 150.195312 155.992188 148.796875 154.683594 147.503906 C 153.105469 145.945312 150.226562 146.425781 148.824219 144.875 C 148.871094 145.222656 148.914062 145.566406 148.957031 145.910156 C 150.246094 143.628906 154.917969 143.230469 157.15625 143.136719 C 160.476562 143 163.558594 143.902344 166.402344 145.589844 C 167.347656 146.148438 168.207031 144.675781 167.261719 144.117188 C 163.636719 141.96875 159.75 141.105469 155.550781 141.554688 C 153.023438 141.828125 148.886719 142.570312 147.488281 145.046875 C 147.292969 145.394531 147.363281 145.796875 147.621094 146.082031 C 148.515625 147.070312 149.925781 147.238281 151.136719 147.621094 C 153.90625 148.496094 154.257812 149.933594 154.464844 152.574219 C 154.667969 155.21875 156.097656 156.050781 158.769531 155.6875 C 163.460938 155.046875 160.9375 150.148438 164.144531 148.046875 C 165.207031 147.351562 170.445312 146.625 167.433594 144.25 C 166.582031 143.582031 165.371094 144.777344 166.230469 145.457031 " fill-opacity="1" fill-rule="nonzero"/><path fill="#000000" d="M 128.835938 151.902344 C 128.839844 151.960938 128.839844 152.019531 128.839844 152.074219 C 128.847656 152.519531 129.226562 152.949219 129.691406 152.925781 C 130.144531 152.90625 130.554688 152.550781 130.542969 152.074219 C 130.542969 152.019531 130.542969 151.960938 130.542969 151.902344 C 130.53125 151.460938 130.15625 151.03125 129.6875 151.054688 C 129.234375 151.074219 128.828125 151.425781 128.835938 151.902344 " fill-opacity="1" fill-rule="nonzero"/><path fill="#000000" d="M 134.601562 148.714844 C 134.601562 148.773438 134.601562 148.832031 134.605469 148.886719 C 134.613281 149.332031 134.992188 149.761719 135.457031 149.738281 C 135.910156 149.71875 136.316406 149.363281 136.308594 148.886719 C 136.308594 148.832031 136.304688 148.773438 136.304688 148.714844 C 136.296875 148.269531 135.917969 147.84375 135.453125 147.863281 C 135 147.886719 134.59375 148.238281 134.601562 148.714844 " fill-opacity="1" fill-rule="nonzero"/><path fill="#000000" d="M 132.148438 156.136719 C 132.207031 156.132812 132.261719 156.132812 132.320312 156.132812 C 132.765625 156.125 133.191406 155.746094 133.171875 155.28125 C 133.152344 154.828125 132.796875 154.421875 132.320312 154.429688 C 132.261719 154.429688 132.207031 154.429688 132.148438 154.433594 C 131.703125 154.441406 131.277344 154.816406 131.296875 155.285156 C 131.316406 155.738281 131.671875 156.144531 132.148438 156.136719 " fill-opacity="1" fill-rule="nonzero"/><path fill="#000000" d="M 139.222656 158.421875 C 139.21875 158.195312 139.214844 157.964844 139.210938 157.738281 C 139.203125 157.292969 138.824219 156.867188 138.359375 156.886719 C 137.90625 156.90625 137.5 157.261719 137.507812 157.738281 C 137.511719 157.964844 137.515625 158.195312 137.519531 158.421875 C 137.527344 158.867188 137.90625 159.292969 138.371094 159.273438 C 138.828125 159.253906 139.230469 158.898438 139.222656 158.421875 " fill-opacity="1" fill-rule="nonzero"/><path fill="#000000" d="M 143.644531 151.074219 C 143.53125 151.132812 143.417969 151.191406 143.304688 151.253906 C 142.894531 151.464844 142.773438 152.035156 142.996094 152.417969 C 143.238281 152.832031 143.753906 152.9375 144.164062 152.722656 C 144.277344 152.664062 144.390625 152.605469 144.5 152.546875 C 144.910156 152.332031 145.03125 151.765625 144.808594 151.378906 C 144.566406 150.96875 144.050781 150.859375 143.644531 151.074219 " fill-opacity="1" fill-rule="nonzero"/><path fill="#000000" d="M 136.730469 153.824219 C 136.789062 153.824219 136.84375 153.824219 136.902344 153.820312 C 137.347656 153.8125 137.773438 153.4375 137.753906 152.96875 C 137.734375 152.515625 137.378906 152.109375 136.902344 152.117188 C 136.84375 152.121094 136.789062 152.121094 136.730469 152.121094 C 136.285156 152.128906 135.859375 152.507812 135.878906 152.972656 C 135.898438 153.429688 136.253906 153.832031 136.730469 153.824219 " fill-opacity="1" fill-rule="nonzero"/><path fill="#000000" d="M 140.808594 148.339844 C 140.238281 148.21875 139.644531 148.601562 139.667969 149.222656 C 139.6875 149.816406 140.21875 150.269531 140.8125 150.105469 C 141.257812 149.980469 141.527344 149.5 141.40625 149.058594 C 141.285156 148.613281 140.804688 148.339844 140.359375 148.460938 L 140.328125 148.472656 C 140.546875 148.5 140.765625 148.527344 140.984375 148.558594 L 140.960938 148.539062 C 141.09375 148.710938 141.222656 148.878906 141.351562 149.050781 C 141.351562 149.164062 141.351562 149.28125 141.351562 149.398438 C 141.277344 149.523438 141.203125 149.648438 141.132812 149.773438 L 141.152344 149.757812 C 140.875 149.828125 140.597656 149.902344 140.324219 149.976562 L 140.355469 149.980469 C 140.789062 150.074219 141.296875 149.851562 141.402344 149.386719 C 141.5 148.957031 141.273438 148.441406 140.808594 148.339844 " fill-opacity="1" fill-rule="nonzero"/><path fill="#000000" d="M 173.574219 154.535156 C 173.570312 154.476562 173.570312 154.421875 173.570312 154.363281 C 173.5625 153.917969 173.183594 153.492188 172.71875 153.511719 C 172.261719 153.53125 171.855469 153.886719 171.867188 154.363281 C 171.867188 154.421875 171.867188 154.476562 171.867188 154.535156 C 171.878906 154.980469 172.253906 155.40625 172.71875 155.386719 C 173.175781 155.367188 173.582031 155.011719 173.574219 154.535156 " fill-opacity="1" fill-rule="nonzero"/><path fill="#000000" d="M 174.503906 150.046875 C 175.601562 150.046875 175.605469 148.34375 174.503906 148.34375 C 173.410156 148.34375 173.410156 150.046875 174.503906 150.046875 " fill-opacity="1" fill-rule="nonzero"/><path fill="#000000" d="M 180.855469 149.746094 C 180.859375 149.804688 180.859375 149.859375 180.859375 149.917969 C 180.867188 150.363281 181.246094 150.789062 181.710938 150.769531 C 182.167969 150.75 182.570312 150.394531 182.5625 149.917969 C 182.5625 149.859375 182.5625 149.804688 182.558594 149.746094 C 182.550781 149.300781 182.175781 148.875 181.707031 148.894531 C 181.253906 148.914062 180.847656 149.269531 180.855469 149.746094 " fill-opacity="1" fill-rule="nonzero"/><path fill="#000000" d="M 176.875 152.996094 C 176.933594 153.050781 176.992188 153.105469 177.046875 153.164062 C 177.378906 153.480469 177.921875 153.492188 178.253906 153.164062 C 178.574219 152.839844 178.585938 152.277344 178.253906 151.957031 C 178.195312 151.902344 178.136719 151.847656 178.078125 151.789062 C 177.746094 151.472656 177.203125 151.460938 176.875 151.789062 C 176.550781 152.113281 176.542969 152.675781 176.875 152.996094 " fill-opacity="1" fill-rule="nonzero"/><path fill="#000000" d="M 177.539062 160.882812 C 177.59375 160.824219 177.652344 160.765625 177.707031 160.707031 C 178.027344 160.375 178.035156 159.832031 177.707031 159.503906 C 177.386719 159.179688 176.824219 159.171875 176.503906 159.503906 C 176.445312 159.5625 176.390625 159.617188 176.335938 159.675781 C 176.015625 160.007812 176.003906 160.550781 176.335938 160.882812 C 176.65625 161.203125 177.21875 161.214844 177.539062 160.882812 " fill-opacity="1" fill-rule="nonzero"/><path fill="#000000" d="M 188.652344 154.074219 C 188.597656 154.074219 188.539062 154.078125 188.484375 154.078125 C 188.039062 154.085938 187.609375 154.464844 187.632812 154.929688 C 187.652344 155.382812 188.003906 155.789062 188.484375 155.78125 C 188.539062 155.78125 188.597656 155.777344 188.652344 155.777344 C 189.101562 155.769531 189.527344 155.390625 189.507812 154.925781 C 189.484375 154.472656 189.132812 154.066406 188.652344 154.074219 " fill-opacity="1" fill-rule="nonzero"/><path fill="#000000" d="M 184.589844 157.585938 C 184.585938 157.527344 184.585938 157.472656 184.585938 157.414062 C 184.578125 156.96875 184.199219 156.542969 183.734375 156.5625 C 183.28125 156.582031 182.875 156.9375 182.882812 157.414062 C 182.882812 157.472656 182.882812 157.527344 182.886719 157.585938 C 182.894531 158.03125 183.269531 158.457031 183.738281 158.4375 C 184.191406 158.417969 184.597656 158.0625 184.589844 157.585938 " fill-opacity="1" fill-rule="nonzero"/><path fill="#000000" d="M 185.804688 148.796875 C 185.808594 148.855469 185.808594 148.914062 185.808594 148.96875 C 185.816406 149.414062 186.195312 149.84375 186.660156 149.820312 C 187.113281 149.800781 187.519531 149.445312 187.511719 148.96875 C 187.511719 148.914062 187.511719 148.855469 187.507812 148.796875 C 187.5 148.351562 187.125 147.925781 186.65625 147.945312 C 186.203125 147.96875 185.796875 148.320312 185.804688 148.796875 " fill-opacity="1" fill-rule="nonzero"/><path fill="#000000" d="M 143.671875 157.796875 C 143.675781 157.851562 143.675781 157.910156 143.675781 157.964844 C 143.683594 158.410156 144.0625 158.839844 144.527344 158.816406 C 144.984375 158.796875 145.390625 158.445312 145.378906 157.964844 C 145.378906 157.910156 145.378906 157.851562 145.378906 157.796875 C 145.367188 157.351562 144.992188 156.921875 144.523438 156.945312 C 144.070312 156.964844 143.664062 157.320312 143.671875 157.796875 " fill-opacity="1" fill-rule="nonzero"/><path fill="#e6e6e6" d="M 112.585938 179.546875 C 111.925781 181.042969 111.265625 182.539062 110.609375 184.035156 C 110.171875 185.027344 111.636719 185.894531 112.078125 184.894531 C 112.738281 183.398438 113.398438 181.902344 114.054688 180.40625 C 114.492188 179.414062 113.027344 178.546875 112.585938 179.546875 " fill-opacity="1" fill-rule="nonzero"/><path fill="#e6e6e6" d="M 119.628906 179.933594 C 119.292969 180.960938 118.960938 181.992188 118.625 183.019531 C 118.285156 184.066406 119.929688 184.515625 120.269531 183.472656 C 120.601562 182.445312 120.9375 181.414062 121.273438 180.386719 C 121.613281 179.339844 119.964844 178.890625 119.628906 179.933594 " fill-opacity="1" fill-rule="nonzero"/><path fill="#e6e6e6" d="M 115.78125 193.589844 C 115.675781 195.1875 115.566406 196.785156 115.460938 198.382812 C 115.386719 199.476562 117.089844 199.472656 117.164062 198.382812 C 117.269531 196.785156 117.378906 195.1875 117.484375 193.589844 C 117.558594 192.496094 115.855469 192.5 115.78125 193.589844 " fill-opacity="1" fill-rule="nonzero"/><path fill="#e6e6e6" d="M 126.363281 191.796875 C 126.144531 192.824219 125.925781 193.855469 125.707031 194.882812 C 125.476562 195.953125 127.117188 196.410156 127.347656 195.335938 C 127.566406 194.308594 127.789062 193.277344 128.007812 192.25 C 128.234375 191.179688 126.59375 190.722656 126.363281 191.796875 " fill-opacity="1" fill-rule="nonzero"/><path fill="#e6e6e6" d="M 132.03125 185.75 C 132.046875 186.664062 132.066406 187.578125 132.082031 188.488281 C 132.101562 189.585938 133.804688 189.589844 133.785156 188.488281 C 133.769531 187.578125 133.75 186.664062 133.734375 185.75 C 133.714844 184.65625 132.011719 184.652344 132.03125 185.75 " fill-opacity="1" fill-rule="nonzero"/><path fill="#e6e6e6" d="M 131.707031 205.277344 C 131.738281 206.988281 131.769531 208.703125 131.800781 210.414062 C 131.820312 211.507812 133.523438 211.511719 133.503906 210.414062 C 133.472656 208.703125 133.441406 206.988281 133.410156 205.277344 C 133.390625 204.183594 131.6875 204.179688 131.707031 205.277344 " fill-opacity="1" fill-rule="nonzero"/><path fill="#e6e6e6" d="M 143.355469 189.0625 C 142.945312 190.558594 142.535156 192.054688 142.121094 193.550781 C 141.832031 194.609375 143.476562 195.0625 143.765625 194.003906 C 144.175781 192.507812 144.589844 191.011719 145 189.515625 C 145.289062 188.457031 143.648438 188.003906 143.355469 189.0625 " fill-opacity="1" fill-rule="nonzero"/><path fill="#e6e6e6" d="M 143.011719 205.410156 C 143.03125 206.554688 143.054688 207.695312 143.074219 208.835938 C 143.09375 209.929688 144.796875 209.933594 144.777344 208.835938 C 144.757812 207.695312 144.734375 206.554688 144.714844 205.410156 C 144.695312 204.316406 142.992188 204.3125 143.011719 205.410156 " fill-opacity="1" fill-rule="nonzero"/><path fill="#e6e6e6" d="M 155.058594 190.121094 C 155.085938 191.488281 155.109375 192.859375 155.132812 194.230469 C 155.15625 195.324219 156.859375 195.328125 156.835938 194.230469 C 156.8125 192.859375 156.789062 191.488281 156.761719 190.121094 C 156.742188 189.027344 155.039062 189.023438 155.058594 190.121094 " fill-opacity="1" fill-rule="nonzero"/><path fill="#e6e6e6" d="M 155.832031 213.394531 C 155.859375 214.878906 155.886719 216.359375 155.914062 217.84375 C 155.933594 218.941406 157.636719 218.945312 157.617188 217.84375 C 157.589844 216.359375 157.5625 214.878906 157.535156 213.394531 C 157.515625 212.300781 155.8125 212.296875 155.832031 213.394531 " fill-opacity="1" fill-rule="nonzero"/><path fill="#e6e6e6" d="M 164.882812 201.355469 C 164.257812 203.191406 164.152344 205.074219 164.5 206.980469 C 164.695312 208.058594 166.335938 207.601562 166.140625 206.527344 C 165.847656 204.921875 166 203.351562 166.523438 201.808594 C 166.878906 200.765625 165.234375 200.320312 164.882812 201.355469 " fill-opacity="1" fill-rule="nonzero"/><path fill="#e6e6e6" d="M 174.554688 188.734375 C 174.585938 190.332031 174.613281 191.929688 174.644531 193.527344 C 174.664062 194.621094 176.367188 194.625 176.347656 193.527344 C 176.316406 191.929688 176.289062 190.332031 176.257812 188.734375 C 176.238281 187.636719 174.535156 187.636719 174.554688 188.734375 " fill-opacity="1" fill-rule="nonzero"/><path fill="#e6e6e6" d="M 176.34375 211.304688 C 176.367188 212.558594 176.386719 213.8125 176.410156 215.070312 C 176.433594 216.164062 178.136719 216.167969 178.113281 215.070312 C 178.089844 213.8125 178.070312 212.558594 178.046875 211.304688 C 178.023438 210.207031 176.320312 210.203125 176.34375 211.304688 " fill-opacity="1" fill-rule="nonzero"/><path fill="#e6e6e6" d="M 189.582031 203.753906 C 189.800781 204.894531 190.019531 206.039062 190.238281 207.179688 C 190.445312 208.257812 192.085938 207.800781 191.882812 206.726562 C 191.660156 205.585938 191.441406 204.441406 191.222656 203.300781 C 191.015625 202.222656 189.375 202.679688 189.582031 203.753906 " fill-opacity="1" fill-rule="nonzero"/><path fill="#e6e6e6" d="M 191.0625 185.207031 C 191.375 186.496094 191.449219 187.785156 191.3125 189.105469 C 191.203125 190.195312 192.90625 190.1875 193.015625 189.105469 C 193.164062 187.636719 193.050781 186.1875 192.703125 184.753906 C 192.445312 183.6875 190.804688 184.140625 191.0625 185.207031 " fill-opacity="1" fill-rule="nonzero"/><path fill="#e6e6e6" d="M 195.890625 211.167969 C 196.136719 212.191406 196.386719 213.214844 196.632812 214.238281 C 196.890625 215.300781 198.53125 214.851562 198.273438 213.785156 C 198.027344 212.761719 197.78125 211.738281 197.535156 210.714844 C 197.277344 209.652344 195.632812 210.101562 195.890625 211.167969 " fill-opacity="1" fill-rule="nonzero"/><path fill="#e6e6e6" d="M 202.015625 187.40625 C 202.5625 188.886719 202.910156 190.402344 203.027344 191.976562 C 203.109375 193.0625 204.8125 193.070312 204.730469 191.976562 C 204.601562 190.246094 204.257812 188.578125 203.65625 186.953125 C 203.28125 185.933594 201.632812 186.375 202.015625 187.40625 " fill-opacity="1" fill-rule="nonzero"/><path fill="#ffffff" d="M 153.953125 145.714844 C 154.386719 145.347656 154.90625 145.160156 155.464844 145.074219 C 155.917969 145.007812 156.167969 144.433594 156.058594 144.027344 C 155.925781 143.542969 155.46875 143.363281 155.011719 143.433594 C 154.15625 143.5625 153.402344 143.957031 152.75 144.511719 C 152.398438 144.808594 152.441406 145.410156 152.75 145.714844 C 153.097656 146.0625 153.601562 146.015625 153.953125 145.714844 " fill-opacity="1" fill-rule="nonzero"/><path fill="#ececec" d="M 164.09375 181.019531 C 164.023438 181.019531 163.953125 181.019531 163.878906 181.019531 C 163.953125 181.019531 164.023438 181.019531 164.09375 181.019531 M 164.601562 181.019531 C 172.101562 180.992188 180.132812 180.347656 186.859375 178.339844 C 186.675781 178.394531 186.496094 178.445312 186.3125 178.5 C 181.195312 179.957031 175.367188 180.652344 169.613281 180.902344 C 167.929688 180.976562 166.253906 181.011719 164.601562 181.019531 M 186.90625 178.324219 C 186.925781 178.320312 186.941406 178.316406 186.957031 178.308594 C 186.941406 178.316406 186.925781 178.320312 186.90625 178.324219 " fill-opacity="1" fill-rule="nonzero"/><path fill="#ececec" d="M 164.09375 181.019531 C 164.023438 181.019531 163.953125 181.019531 163.878906 181.019531 C 162.640625 181.019531 161.421875 181 160.222656 180.96875 C 159.402344 180.949219 158.59375 180.921875 157.800781 180.886719 C 157.765625 180.886719 157.730469 180.886719 157.695312 180.882812 C 157.136719 180.859375 156.578125 180.832031 156.019531 180.800781 C 156.011719 180.796875 156 180.796875 155.988281 180.796875 C 155.988281 180.796875 155.984375 180.796875 155.984375 180.796875 C 155.976562 180.796875 155.964844 180.796875 155.957031 180.796875 C 155.953125 180.796875 155.949219 180.796875 155.945312 180.796875 C 155.941406 180.792969 155.933594 180.792969 155.925781 180.792969 C 155.917969 180.792969 155.914062 180.792969 155.910156 180.792969 C 155.902344 180.792969 155.894531 180.792969 155.890625 180.792969 C 155.882812 180.792969 155.878906 180.789062 155.871094 180.789062 C 155.867188 180.789062 155.863281 180.789062 155.855469 180.789062 C 155.847656 180.789062 155.839844 180.789062 155.832031 180.789062 C 155.828125 180.789062 155.824219 180.789062 155.820312 180.785156 C 155.808594 180.785156 155.800781 180.785156 155.792969 180.785156 C 155.789062 180.785156 155.789062 180.785156 155.785156 180.785156 C 155.773438 180.785156 155.761719 180.785156 155.75 180.78125 L 155.746094 180.78125 C 143.460938 180.011719 131.015625 176.773438 121.789062 169.992188 C 130.894531 175.066406 142.144531 177.445312 153.121094 177.890625 C 155.140625 177.972656 157.253906 178.023438 159.414062 178.023438 C 167.09375 178.023438 175.378906 177.390625 182.277344 175.3125 C 188.722656 173.375 194.828125 169.835938 199.40625 164.863281 C 203.890625 159.988281 205.976562 152.183594 206.699219 144.832031 C 208.136719 146.636719 209.367188 148.617188 210.347656 150.757812 C 210.523438 151.144531 210.6875 151.523438 210.832031 151.894531 C 211.554688 147.636719 211.769531 143.324219 211.664062 139.601562 C 211.679688 140.191406 211.6875 140.796875 211.6875 141.414062 C 211.6875 150.222656 209.917969 161.519531 204.085938 167.859375 C 203.925781 168.035156 203.761719 168.207031 203.597656 168.378906 C 199.078125 173.078125 193.171875 176.4375 186.957031 178.308594 C 186.941406 178.316406 186.925781 178.320312 186.90625 178.324219 C 186.890625 178.328125 186.875 178.335938 186.859375 178.339844 C 180.132812 180.347656 172.101562 180.992188 164.601562 181.019531 C 164.433594 181.019531 164.261719 181.019531 164.09375 181.019531 " fill-opacity="1" fill-rule="nonzero"/><path fill="#1d1d1d" d="M 160.222656 180.96875 C 159.402344 180.949219 158.59375 180.921875 157.800781 180.886719 C 157.207031 180.863281 156.613281 180.835938 156.019531 180.800781 C 156.578125 180.832031 157.136719 180.859375 157.695312 180.882812 C 157.730469 180.886719 157.765625 180.886719 157.800781 180.886719 C 158.59375 180.921875 159.402344 180.949219 160.222656 180.96875 M 169.613281 180.902344 C 175.367188 180.652344 181.195312 179.957031 186.3125 178.5 C 181.195312 179.957031 175.367188 180.652344 169.613281 180.902344 M 156.019531 180.800781 C 156.011719 180.796875 156 180.796875 155.988281 180.796875 C 156 180.796875 156.011719 180.796875 156.019531 180.800781 M 155.984375 180.796875 C 155.976562 180.796875 155.964844 180.796875 155.957031 180.796875 C 155.964844 180.796875 155.976562 180.796875 155.984375 180.796875 M 155.945312 180.796875 C 155.941406 180.792969 155.933594 180.792969 155.925781 180.792969 C 155.933594 180.792969 155.941406 180.792969 155.945312 180.796875 M 155.910156 180.792969 C 155.902344 180.792969 155.894531 180.792969 155.890625 180.792969 C 155.894531 180.792969 155.902344 180.792969 155.910156 180.792969 M 155.871094 180.789062 C 155.867188 180.789062 155.863281 180.789062 155.855469 180.789062 C 155.863281 180.789062 155.867188 180.789062 155.871094 180.789062 M 155.832031 180.789062 C 155.828125 180.789062 155.824219 180.789062 155.820312 180.785156 C 155.824219 180.789062 155.828125 180.789062 155.832031 180.789062 M 155.792969 180.785156 C 155.789062 180.785156 155.789062 180.785156 155.785156 180.785156 C 155.789062 180.785156 155.789062 180.785156 155.792969 180.785156 M 155.75 180.78125 C 155.75 180.78125 155.75 180.78125 155.746094 180.78125 L 155.75 180.78125 M 186.957031 178.308594 C 193.171875 176.4375 199.078125 173.078125 203.597656 168.378906 C 203.761719 168.207031 203.925781 168.035156 204.085938 167.859375 C 209.917969 161.519531 211.6875 150.222656 211.6875 141.414062 C 211.6875 150.222656 209.917969 161.519531 204.085938 167.859375 C 199.507812 172.832031 193.398438 176.371094 186.957031 178.308594 " fill-opacity="1" fill-rule="nonzero"/><path fill="#ececec" d="M 211.664062 139.589844 C 211.664062 139.589844 211.664062 139.585938 211.664062 139.582031 C 211.664062 139.585938 211.664062 139.589844 211.664062 139.589844 M 211.660156 139.5625 C 211.660156 139.5625 211.660156 139.5625 211.660156 139.558594 C 211.660156 139.5625 211.660156 139.5625 211.660156 139.5625 " fill-opacity="1" fill-rule="nonzero"/><path fill="#1d1d1d" d="M 199.59375 105.820312 C 199.582031 105.8125 199.570312 105.800781 199.558594 105.789062 C 199.570312 105.800781 199.582031 105.8125 199.59375 105.820312 M 199.546875 105.777344 C 199.539062 105.773438 199.53125 105.765625 199.523438 105.757812 C 199.53125 105.765625 199.539062 105.769531 199.546875 105.777344 M 199.507812 105.746094 C 199.5 105.738281 199.488281 105.726562 199.476562 105.71875 C 199.488281 105.726562 199.5 105.738281 199.507812 105.746094 M 199.460938 105.703125 C 199.453125 105.699219 199.449219 105.691406 199.441406 105.6875 C 199.449219 105.691406 199.453125 105.699219 199.460938 105.703125 M 199.421875 105.667969 C 199.417969 105.664062 199.414062 105.660156 199.410156 105.65625 C 199.414062 105.660156 199.417969 105.664062 199.421875 105.667969 " fill-opacity="1" fill-rule="nonzero"/><path fill="#938579" d="M 210.832031 151.894531 C 210.6875 151.523438 210.523438 151.144531 210.347656 150.757812 C 209.367188 148.617188 208.136719 146.636719 206.699219 144.832031 C 207.003906 141.722656 207.066406 138.695312 206.964844 136.003906 C 206.910156 134.597656 206.847656 133.195312 206.753906 131.792969 C 206.015625 120.703125 203.476562 110.414062 194.914062 102.824219 C 193.777344 101.816406 192.585938 100.875 191.359375 99.988281 C 194.21875 101.601562 196.925781 103.484375 199.410156 105.65625 C 199.414062 105.660156 199.417969 105.664062 199.421875 105.667969 C 199.425781 105.675781 199.433594 105.679688 199.441406 105.6875 C 199.449219 105.691406 199.453125 105.699219 199.460938 105.703125 C 199.464844 105.710938 199.472656 105.714844 199.476562 105.71875 C 199.488281 105.726562 199.5 105.738281 199.507812 105.746094 C 199.511719 105.75 199.515625 105.753906 199.523438 105.757812 C 199.53125 105.765625 199.539062 105.773438 199.546875 105.777344 C 199.550781 105.78125 199.554688 105.785156 199.558594 105.789062 C 199.570312 105.800781 199.582031 105.8125 199.59375 105.820312 C 208.152344 113.40625 210.695312 123.699219 211.433594 134.789062 C 211.527344 136.191406 211.589844 137.59375 211.644531 139 C 211.648438 139.183594 211.65625 139.371094 211.660156 139.558594 C 211.660156 139.5625 211.660156 139.5625 211.660156 139.5625 C 211.660156 139.570312 211.664062 139.574219 211.664062 139.582031 C 211.664062 139.585938 211.664062 139.589844 211.664062 139.589844 C 211.664062 139.59375 211.664062 139.597656 211.664062 139.601562 C 211.769531 143.324219 211.554688 147.636719 210.832031 151.894531 " fill-opacity="1" fill-rule="nonzero"/><path fill="#b3b3b3" d="M 181.371094 154.9375 C 196.039062 157.144531 209.300781 165.273438 217.871094 177.382812 C 218.1875 177.828125 218.925781 177.402344 218.609375 176.953125 C 209.910156 164.667969 196.492188 156.359375 181.597656 154.117188 C 181.0625 154.035156 180.832031 154.855469 181.371094 154.9375 " fill-opacity="1" fill-rule="nonzero"/><path fill="#b3b3b3" d="M 183.839844 150.652344 C 191.03125 151.644531 198.511719 153.175781 205.128906 156.25 C 211.921875 159.40625 216.265625 164.992188 220.484375 170.960938 C 220.796875 171.40625 221.535156 170.980469 221.21875 170.53125 C 217.148438 164.773438 212.917969 159.183594 206.464844 155.953125 C 199.582031 152.503906 191.640625 150.878906 184.066406 149.832031 C 183.527344 149.757812 183.296875 150.578125 183.839844 150.652344 " fill-opacity="1" fill-rule="nonzero"/><path fill="#b3b3b3" d="M 181.929688 157.519531 C 192.007812 161.847656 200.84375 168.414062 207.890625 176.816406 C 208.246094 177.238281 208.84375 176.632812 208.492188 176.214844 C 201.402344 167.761719 192.5 161.140625 182.359375 156.785156 C 181.863281 156.570312 181.425781 157.304688 181.929688 157.519531 " fill-opacity="1" fill-rule="nonzero"/><path fill="#b3b3b3" d="M 134.984375 148.902344 C 128.664062 147.238281 122.140625 147.804688 115.964844 149.828125 C 113.066406 150.777344 110.265625 152.027344 107.558594 153.429688 C 105.25 154.628906 102.496094 155.769531 101.046875 158.039062 C 100.753906 158.5 101.488281 158.929688 101.785156 158.46875 C 103.25 156.167969 106.519531 154.894531 108.886719 153.707031 C 111.546875 152.375 114.300781 151.210938 117.148438 150.34375 C 122.90625 148.597656 128.910156 148.183594 134.757812 149.722656 C 135.289062 149.863281 135.511719 149.039062 134.984375 148.902344 " fill-opacity="1" fill-rule="nonzero"/><path fill="#b3b3b3" d="M 133.65625 152.28125 C 121.375 151.117188 109.132812 156.121094 101.183594 165.554688 C 100.832031 165.972656 101.429688 166.578125 101.785156 166.15625 C 109.609375 156.878906 121.574219 151.988281 133.65625 153.132812 C 134.203125 153.183594 134.199219 152.332031 133.65625 152.28125 " fill-opacity="1" fill-rule="nonzero"/><path fill="#b3b3b3" d="M 134.34375 155.238281 C 128.664062 155.773438 123.707031 158.425781 119.453125 162.140625 C 115.226562 165.832031 111.085938 170.347656 108.980469 175.621094 C 108.777344 176.128906 109.601562 176.347656 109.800781 175.847656 C 111.742188 170.996094 115.519531 166.875 119.339844 163.382812 C 123.558594 159.523438 128.558594 156.636719 134.34375 156.089844 C 134.882812 156.039062 134.886719 155.1875 134.34375 155.238281 " fill-opacity="1" fill-rule="nonzero"/><path fill="#b5a99f" d="M 118.382812 112.121094 C 117.148438 112.121094 115.957031 110.910156 116.871094 109.667969 C 121.199219 103.792969 127.046875 99.5625 134.023438 97.394531 C 134.214844 97.335938 134.390625 97.308594 134.558594 97.308594 C 136.261719 97.308594 136.832031 100.089844 134.929688 100.679688 C 128.859375 102.566406 123.589844 106.257812 119.8125 111.386719 C 119.433594 111.90625 118.902344 112.121094 118.382812 112.121094 " fill-opacity="1" fill-rule="nonzero"/><path fill="#ffffff" d="M 195.949219 235.804688 C 197.824219 252.585938 197.335938 269.628906 194.5 286.273438 C 200.6875 286.613281 206.71875 289.308594 211.097656 293.691406 C 211.945312 294.542969 212.785156 295.785156 212.230469 296.847656 C 211.734375 297.792969 210.464844 297.9375 209.398438 297.964844 C 196.816406 298.28125 184.234375 298.597656 171.652344 298.914062 C 170.960938 298.929688 170.179688 298.914062 169.710938 298.402344 C 169.285156 297.945312 169.273438 297.253906 169.285156 296.625 C 169.484375 287.335938 169.890625 278.050781 170.503906 268.777344 " fill-opacity="1" fill-rule="nonzero"/><path fill="#000000" d="M 195.097656 235.804688 C 196.914062 252.546875 196.457031 269.433594 193.679688 286.046875 C 193.585938 286.617188 193.910156 287.082031 194.5 287.125 C 197.902344 287.375 201.195312 288.226562 204.246094 289.773438 C 205.753906 290.542969 207.199219 291.464844 208.519531 292.523438 C 209.070312 292.964844 209.757812 293.421875 210.175781 293.988281 C 211.039062 294.675781 211.144531 295.683594 210.484375 297.011719 C 210.125 297.042969 209.761719 297.078125 209.398438 297.113281 C 207.96875 297.632812 205.402344 297.214844 203.847656 297.253906 C 201.996094 297.300781 200.148438 297.347656 198.296875 297.390625 C 194.597656 297.484375 190.894531 297.578125 187.195312 297.671875 C 183.496094 297.765625 179.792969 297.855469 176.09375 297.949219 C 174.308594 297.996094 170.964844 298.839844 170.136719 296.625 C 169.65625 295.34375 170.226562 292.984375 170.265625 291.609375 C 170.488281 283.992188 170.859375 276.378906 171.355469 268.777344 C 171.425781 267.679688 169.722656 267.6875 169.652344 268.777344 C 169.3125 273.96875 169.03125 279.164062 168.816406 284.367188 C 168.710938 286.964844 168.621094 289.566406 168.546875 292.167969 C 168.496094 293.929688 167.941406 296.402344 168.585938 298.105469 C 169.695312 301.019531 174.949219 299.679688 177.203125 299.625 C 182.570312 299.492188 187.933594 299.355469 193.300781 299.222656 C 198.480469 299.089844 203.664062 299.011719 208.84375 298.832031 C 211.027344 298.757812 213.738281 298.207031 213.117188 295.378906 C 212.464844 292.402344 207.953125 289.816406 205.496094 288.511719 C 202.066406 286.6875 198.363281 285.703125 194.5 285.421875 C 194.773438 285.78125 195.046875 286.140625 195.324219 286.5 C 198.125 269.730469 198.636719 252.707031 196.800781 235.804688 C 196.683594 234.726562 194.976562 234.714844 195.097656 235.804688 " fill-opacity="1" fill-rule="nonzero"/><path fill="#000000" d="M 196.023438 297.539062 C 195.707031 296.261719 195.152344 295.0625 194.378906 293.996094 C 193.738281 293.121094 192.257812 293.972656 192.90625 294.859375 C 193.605469 295.816406 194.09375 296.839844 194.382812 297.992188 C 194.648438 299.054688 196.292969 298.605469 196.023438 297.539062 " fill-opacity="1" fill-rule="nonzero"/><path fill="#000000" d="M 188.289062 297.765625 C 188.539062 295.816406 187.53125 293.90625 185.851562 292.917969 C 184.90625 292.359375 184.046875 293.828125 184.992188 294.386719 C 186.203125 295.101562 186.761719 296.394531 186.585938 297.765625 C 186.449219 298.851562 188.152344 298.839844 188.289062 297.765625 " fill-opacity="1" fill-rule="nonzero"/><path fill="#ffffff" d="M 121.5625 225.675781 C 130.691406 208.6875 134.300781 189.332031 141.476562 171.429688 C 143.105469 167.363281 145.03125 163.222656 148.398438 160.414062 C 151.765625 157.609375 156.957031 156.539062 160.554688 159.042969 C 163.25 160.917969 164.46875 164.300781 164.941406 167.550781 C 166.042969 175.132812 163.949219 182.765625 162.226562 190.234375 C 159.101562 203.757812 157.128906 217.546875 156.339844 231.40625 " fill-opacity="1" fill-rule="nonzero"/><path fill="#000000" d="M 122.296875 226.105469 C 131.425781 208.898438 135.046875 189.613281 142.296875 171.65625 C 144.0625 167.285156 146.265625 162.433594 150.53125 159.976562 C 155.675781 157.011719 161.433594 158.820312 163.371094 164.542969 C 166.796875 174.652344 162.03125 186.476562 160.011719 196.433594 C 157.667969 207.964844 156.183594 219.65625 155.488281 231.40625 C 155.425781 232.5 157.128906 232.496094 157.191406 231.40625 C 157.921875 219.078125 159.53125 206.820312 162.097656 194.738281 C 164.183594 184.921875 168.710938 172.996094 164.644531 163.105469 C 161.195312 154.726562 151.246094 155.546875 145.941406 161.644531 C 143.082031 164.929688 141.457031 169.085938 139.910156 173.09375 C 137.839844 178.472656 136.0625 183.953125 134.332031 189.449219 C 130.492188 201.628906 126.835938 213.914062 120.824219 225.246094 C 120.3125 226.210938 121.78125 227.074219 122.296875 226.105469 " fill-opacity="1" fill-rule="nonzero"/><path fill="#000000" d="M 150.664062 164.640625 C 150.6875 163.035156 150.976562 161.5 151.511719 159.992188 C 151.878906 158.957031 150.234375 158.511719 149.871094 159.539062 C 149.285156 161.1875 148.988281 162.890625 148.964844 164.640625 C 148.945312 165.738281 150.648438 165.738281 150.664062 164.640625 " fill-opacity="1" fill-rule="nonzero"/><path fill="#000000" d="M 156.210938 164.355469 C 156.339844 162.578125 156.703125 160.859375 157.269531 159.167969 C 157.621094 158.128906 155.976562 157.679688 155.625 158.71875 C 155.011719 160.550781 154.648438 162.425781 154.507812 164.355469 C 154.425781 165.449219 156.132812 165.445312 156.210938 164.355469 " fill-opacity="1" fill-rule="nonzero"/><path fill="#000000" d="M 160.625 165.910156 C 161.328125 164.511719 162.035156 163.113281 162.738281 161.714844 C 163.230469 160.738281 161.761719 159.878906 161.269531 160.855469 C 160.5625 162.253906 159.859375 163.652344 159.15625 165.050781 C 158.660156 166.027344 160.132812 166.890625 160.625 165.910156 " fill-opacity="1" fill-rule="nonzero"/><path fill="#000000" d="M 142.023438 127.734375 C 142.023438 129.304688 140.753906 130.574219 139.1875 130.574219 C 137.617188 130.574219 136.347656 129.304688 136.347656 127.734375 C 136.347656 126.167969 137.617188 124.894531 139.1875 124.894531 C 140.753906 124.894531 142.023438 126.167969 142.023438 127.734375 " fill-opacity="1" fill-rule="nonzero"/><path fill="#000000" d="M 180.066406 126.601562 C 180.066406 128.167969 178.796875 129.4375 177.226562 129.4375 C 175.660156 129.4375 174.390625 128.167969 174.390625 126.601562 C 174.390625 125.03125 175.660156 123.761719 177.226562 123.761719 C 178.796875 123.761719 180.066406 125.03125 180.066406 126.601562 " fill-opacity="1" fill-rule="nonzero"/><path fill="#000000" d="M 173.722656 103.59375 C 173.929688 101.632812 175.09375 98.675781 177.289062 98.175781 C 178.511719 97.898438 179.386719 98.789062 179.957031 99.742188 C 180.253906 100.234375 181.1875 101.75 180.785156 102.347656 C 180.175781 103.265625 181.652344 104.117188 182.257812 103.207031 C 183.09375 101.953125 182.199219 100.265625 181.550781 99.09375 C 180.835938 97.800781 179.75 96.617188 178.207031 96.433594 C 174.480469 96 172.335938 100.570312 172.019531 103.59375 C 171.90625 104.683594 173.609375 104.675781 173.722656 103.59375 " fill-opacity="1" fill-rule="nonzero"/><path fill="#000000" d="M 133.902344 105.019531 C 133.535156 103.128906 132.9375 99.871094 135.308594 98.957031 C 137.957031 97.9375 138.5 101.894531 138.613281 103.5625 C 138.6875 104.648438 140.390625 104.65625 140.316406 103.5625 C 140.132812 100.824219 139.0625 96.433594 135.328125 97.167969 C 131.453125 97.929688 131.6875 102.535156 132.261719 105.472656 C 132.472656 106.546875 134.113281 106.089844 133.902344 105.019531 " fill-opacity="1" fill-rule="nonzero"/><path fill="#e2d13f" d="M 213.390625 46.355469 C 208.710938 44.882812 206.652344 54.285156 206.183594 57.335938 C 205.699219 60.625 205.386719 67.867188 208.625 70.082031 C 213.457031 73.390625 215.953125 62.636719 216.457031 59.777344 C 216.714844 57.179688 217.390625 47.617188 213.390625 46.355469 Z M 213.390625 46.355469 " fill-opacity="1" fill-rule="nonzero"/><path fill="#e2d13f" d="M 194.179688 48.207031 C 189.972656 45.160156 187.667969 55.203125 187.269531 58.0625 C 186.871094 61.058594 186.628906 68.351562 189.761719 70.585938 C 194.09375 73.667969 196.207031 63.398438 196.675781 60.730469 C 197.003906 57.558594 197.417969 50.5625 194.179688 48.207031 Z M 194.179688 48.207031 " fill-opacity="1" fill-rule="nonzero"/><g clip-path="url(#41857654ef)"><path fill="#e2d13f" d="M 262.71875 12.492188 C 236.425781 5.371094 205.09375 6.1875 183.09375 23.957031 C 165.824219 37.902344 156.023438 63 164.285156 84.5625 C 172.476562 105.921875 199.894531 103.980469 218.535156 103.097656 C 219.035156 103.082031 219.78125 103.132812 220.023438 103.667969 C 224.683594 114.40625 224.214844 124.835938 215.867188 132.890625 C 234.332031 132.648438 250.160156 121.820312 251.652344 102.195312 C 251.722656 101.261719 253.851562 100.722656 254.542969 100.636719 C 268.070312 98.921875 282.863281 96.046875 293.308594 86.589844 C 302.316406 78.433594 305.605469 66.84375 306.109375 55.050781 C 306.074219 31.042969 283.296875 18.050781 262.71875 12.492188 Z M 221.546875 59.464844 C 220.457031 65.667969 216.886719 75.851562 208.78125 75.003906 C 203.222656 74.429688 201.265625 68.699219 200.902344 63.363281 C 199.289062 68.835938 195.859375 74.484375 189.589844 74.34375 C 182.195312 74.1875 181.519531 64.210938 182.261719 58.738281 C 183.113281 52.640625 186.699219 44.671875 193.851562 44.449219 C 199.464844 44.257812 201.335938 49.367188 201.734375 54.375 C 203.273438 48.5 206.980469 41.695312 213.492188 42.09375 C 221.601562 42.59375 222.171875 53.507812 221.546875 59.464844 Z M 231.800781 70.152344 C 232.703125 72.25 227.730469 73.703125 226.777344 71.503906 C 225.011719 67.417969 223.867188 63.085938 223.019531 58.738281 C 222.050781 52.761719 220.941406 44.605469 226.136719 40.1875 C 229.03125 37.726562 233.550781 36.808594 237.066406 38.457031 C 247.269531 43.21875 235.023438 54.996094 228.335938 58.703125 C 229.152344 62.617188 230.226562 66.480469 231.800781 70.152344 Z M 255.273438 45.46875 C 253.78125 43.980469 251.582031 42.160156 249.539062 42.976562 C 246.074219 44.34375 247.128906 48.5 248.828125 50.734375 C 251.53125 54.320312 256.742188 56.9375 257.628906 61.683594 C 259.359375 71.054688 242.539062 77.273438 240.082031 66.949219 C 239.683594 65.25 244.707031 63.96875 245.105469 65.597656 C 246.125 69.910156 250.214844 70.757812 252.136719 66.429688 C 253.382812 63.589844 252.257812 61.214844 250.40625 59.03125 C 247.753906 55.914062 242.9375 53.195312 242.230469 48.832031 C 241.484375 44.207031 246.160156 40.359375 250.316406 39.789062 C 253.921875 39.304688 257.4375 41.035156 259.949219 43.546875 C 261.195312 44.8125 256.449219 46.664062 255.273438 45.46875 Z M 265.835938 80.09375 C 262.460938 80.09375 265.785156 77.132812 267.761719 77.132812 C 271.136719 77.117188 267.8125 80.09375 265.835938 80.09375 Z M 273.042969 70.691406 C 272.296875 71.730469 267.449219 72.40625 268.46875 70.96875 C 274.792969 62.183594 273.285156 49.679688 269.40625 40.136719 C 268.972656 39.0625 273.890625 37.484375 274.429688 38.785156 C 278.535156 48.898438 279.660156 61.476562 273.042969 70.691406 Z M 273.042969 70.691406 " fill-opacity="1" fill-rule="nonzero"/></g><path fill="#e2d13f" d="M 234.832031 42.386719 C 232.925781 40.34375 230.035156 41.433594 228.71875 43.460938 C 226.742188 46.476562 227.089844 51.066406 227.644531 54.875 C 232.269531 51.878906 238.382812 46.199219 234.832031 42.386719 Z M 234.832031 42.386719 " fill-opacity="1" fill-rule="nonzero"/></svg>